<svg width="120" height="101" viewBox="0 0 120 101" fill="none" xmlns="http://www.w3.org/2000/svg">
<path d="M49.8857 8.00912H68.7811" stroke="#2F38FF" stroke-width="10" stroke-linecap="round" stroke-linejoin="round"/>
<path d="M82.6357 0.225011C81.2398 0.234028 80.118 1.27578 80.1344 2.54794L80.2659 12.7896C80.2822 14.0536 81.4164 15.0679 82.8034 15.0588L90.9589 15.0051C92.8679 14.9925 94.0981 16.8442 93.201 18.3801L63.1026 69.9109C62.1665 71.5136 59.6561 71.5388 58.6814 69.9553L27.209 18.8256C26.2704 17.3007 27.4717 15.4173 29.3901 15.4061L37.4967 15.3587C38.8945 15.3505 40.0177 14.3068 39.9997 13.0329L39.8544 2.78186C39.8365 1.51909 38.703 0.50652 37.3174 0.515466L2.50512 0.740205C0.587542 0.752584 -0.612472 2.6352 0.325611 4.15949L59.0825 99.6332C60.0571 101.217 62.5676 101.192 63.5038 99.5889L119.701 3.37503C120.598 1.83931 119.368 -0.0122696 117.459 6.12605e-05L82.6357 0.225011Z" fill="url(#paint0_linear_26_19)"/>
<defs>
<linearGradient id="paint0_linear_26_19" x1="60" y1="0" x2="60" y2="100.806" gradientUnits="userSpaceOnUse">
<stop offset="0.24033" stop-color="white"/>
<stop offset="1" stop-color="#121212" stop-opacity="0"/>
</linearGradient>
</defs>
</svg>
